<svg xmlns="http://www.w3.org/2000/svg" xml:space="preserve" width="2000" height="2000" viewBox="0 0 2000 2000" data-version="1" data-id="lg_MAKLwsSsM8MindAfES"><rect width="2000" height="2000" x="0" y="0" id="background" stroke="transparent" fill="#122023"></rect>
    
    
    
    
<g id="outer-wrapper" data-padding="20" transform="matrix(2.742230347349177,0,0,2.742230347349177,-1742.230347349177,-1742.230347349177)"><g id="inner-wrapper" transform="matrix(0.9634369287020109,0,0,0.9634369287020109,10,3.6745886654478994)"><rect width="344.424" height="180.8" x="448.3341299183598" y="543.4581418989591" fill="none" rx="0" ry="0" transform="translate(508.29 410.36)"></rect><path fill="#fff" d="M1017.6461299183599 1096.0681418989589Q1006.1261299183599 1096.0681418989589 996.0861299183598 1091.5481418989589T978.5261299183597 1078.988141898959Q971.0061299183598 1070.948141898959 966.7661299183598 1060.428141898959T962.5261299183597 1037.908141898959Q962.5261299183597 1025.668141898959 966.9261299183598 1015.108141898959T979.0061299183598 996.668141898959Q986.6861299183598 988.788141898959 996.6461299183597 984.388141898959Q1006.6061299183597 979.988141898959 1017.8061299183597 979.988141898959Q1030.6861299183597 979.988141898959 1042.1661299183597 985.988141898959Q1053.6461299183597 991.988141898959 1061.6461299183597 1003.0281418989591L1051.6461299183597 1008.4681418989591Q1045.2461299183597 1000.0681418989591 1036.2461299183597 995.5881418989591T1017.7261299183598 991.108141898959Q1008.6861299183598 991.108141898959 1000.7261299183598 994.748141898959Q992.7661299183599 998.388141898959 986.6861299183598 1004.868141898959Q980.6061299183599 1011.348141898959 977.1661299183598 1019.8281418989591Q973.7261299183598 1028.308141898959 973.7261299183598 1038.068141898959Q973.7261299183598 1047.7481418989591 977.1661299183598 1056.2281418989592T986.6461299183599 1071.148141898959Q992.6861299183598 1077.588141898959 1000.6861299183598 1081.2281418989592Q1008.6861299183598 1084.868141898959 1017.8061299183599 1084.868141898959Q1025.32612991836 1084.868141898959 1032.0861299183598 1082.2681418989591T1044.44612991836 1074.948141898959Q1050.0461299183598 1070.228141898959 1053.92612991836 1063.908141898959Q1057.80612991836 1057.588141898959 1059.5661299183598 1050.148141898959H1029.32612991836V1039.988141898959H1072.6061299183598Q1072.36612991836 1051.588141898959 1067.96612991836 1061.748141898959Q1063.5661299183598 1071.908141898959 1056.0061299183599 1079.628141898959Q1048.44612991836 1087.348141898959 1038.6461299183597 1091.708141898959T1017.6461299183599 1096.0681418989589M1154.7661299183596 1028.948141898959L1154.36612991836 1013.9881418989589H1165.5661299183598V1093.988141898959H1154.36612991836L1153.96612991836 1079.108141898959Q1150.0461299183598 1086.708141898959 1143.0061299183599 1091.388141898959Q1135.96612991836 1096.0681418989589 1126.2061299183597 1096.0681418989589Q1117.40612991836 1096.0681418989589 1109.7261299183597 1092.748141898959T1096.2061299183597 1083.5881418989588Q1090.36612991836 1077.748141898959 1087.0861299183598 1070.0681418989589Q1083.80612991836 1062.388141898959 1083.80612991836 1053.5881418989588Q1083.80612991836 1044.948141898959 1087.0461299183598 1037.348141898959Q1090.28612991836 1029.748141898959 1096.0061299183599 1023.9881418989589Q1101.7261299183597 1018.2281418989589 1109.2861299183596 1014.9881418989589T1125.48612991836 1011.7481418989589Q1135.48612991836 1011.7481418989589 1142.92612991836 1016.5081418989589Q1150.36612991836 1021.2681418989589 1154.7661299183596 1028.948141898959M1125.96612991836 1085.188141898959Q1134.5261299183599 1085.188141898959 1140.6861299183597 1080.988141898959T1150.1661299183597 1069.668141898959Q1153.48612991836 1062.5481418989589 1153.48612991836 1053.988141898959Q1153.48612991836 1045.188141898959 1150.1261299183598 1038.1081418989588T1140.6061299183598 1026.868141898959Q1134.44612991836 1022.708141898959 1125.96612991836 1022.708141898959T1110.48612991836 1026.908141898959Q1103.48612991836 1031.1081418989588 1099.36612991836 1038.228141898959Q1095.2461299183597 1045.3481418989588 1095.2461299183597 1053.988141898959Q1095.2461299183597 1062.708141898959 1099.48612991836 1069.7881418989589T1110.7261299183597 1081.028141898959Q1117.7261299183597 1085.188141898959 1125.96612991836 1085.188141898959M1216.7661299183596 1096.0681418989589Q1205.7261299183597 1096.0681418989589 1196.6461299183597 1090.388141898959Q1187.5661299183598 1084.708141898959 1182.1661299183597 1075.1481418989588T1176.7661299183596 1053.988141898959Q1176.7661299183596 1045.1881418989587 1179.88612991836 1037.5481418989589Q1183.0061299183599 1029.908141898959 1188.48612991836 1024.1081418989588Q1193.96612991836 1018.3081418989589 1201.2461299183597 1015.0281418989589Q1208.5261299183599 1011.7481418989589 1216.7661299183596 1011.7481418989589Q1225.6461299183597 1011.7481418989589 1233.1261299183598 1015.2681418989589Q1240.6061299183598 1018.7881418989589 1246.0061299183599 1025.1081418989588T1254.1661299183597 1039.908141898959Q1256.92612991836 1048.388141898959 1256.44612991836 1058.228141898959H1188.6061299183598Q1189.5661299183598 1065.8281418989588 1193.44612991836 1071.8281418989588T1203.3661299183595 1081.3081418989589Q1209.4061299183595 1084.7881418989589 1216.7661299183596 1084.868141898959Q1224.7661299183596 1084.868141898959 1231.2061299183597 1080.708141898959Q1237.6461299183597 1076.5481418989589 1241.5661299183598 1069.268141898959L1252.92612991836 1071.908141898959Q1248.1261299183598 1082.5481418989589 1238.44612991836 1089.3081418989589Q1228.7661299183596 1096.0681418989589 1216.7661299183596 1096.0681418989589M1188.2861299183596 1049.1881418989587H1245.1661299183597Q1244.6061299183598 1041.748141898959 1240.6461299183597 1035.5481418989589Q1236.6861299183597 1029.3481418989588 1230.44612991836 1025.6281418989588Q1224.2061299183597 1021.9081418989588 1216.7661299183596 1021.9081418989588Q1209.3261299183596 1021.9081418989588 1203.1661299183597 1025.5481418989589Q1197.0061299183599 1029.1881418989587 1193.0861299183598 1035.3881418989588Q1189.1661299183597 1041.5881418989588 1188.2861299183596 1049.1881418989587M1282.1261299183598 1093.988141898959H1270.92612991836V973.9881418989588H1282.1261299183598Z "></path><path fill="#2ecc40" d="M916.1851299183598 1109.438141898959L898.1511299183597 1065.852141898959A15.24 15.24 0 0 0 889.9211299183597 1057.622141898959L867.8741299183598 1048.478141898959L872.4461299183598 1037.455141898959A15.24 15.24 0 0 0 882.6061299183598 1041.417141898959H893.6301299183598A15.24 15.24 0 0 0 906.3301299183598 1017.795141898959L883.7741299183598 983.5561418989589A25.298 25.298 0 0 0 887.1781299183598 935.5501418989588A25.4 25.4 0 0 0 855.6821299183598 971.9741418989588L815.4991299183598 980.1521418989589A15.24 15.24 0 0 0 803.6121299183598 998.1361418989588Q804.5261299183597 1002.6061418989589 807.7781299183598 1005.8571418989588L815.5501299183597 1013.6301418989589C818.2931299183598 1016.4241418989589 821.9001299183598 1017.8461418989589 825.5071299183597 1018.0501418989588L819.0041299183598 1033.797141898959A25.4 25.4 0 0 0 821.1891299183598 1057.267141898959L805.8461299183598 1080.228141898959L765.7651299183598 1088.204141898959A15.24 15.24 0 0 0 771.7091299183597 1118.074141898959L817.9371299183598 1108.930141898959A15.24 15.24 0 0 0 827.5891299183597 1102.428141898959L847.2491299183597 1072.964141898959L872.3431299183598 1083.378141898959L887.9901299183597 1121.072141898959A15.24 15.24 0 0 0 916.1331299183597 1109.388141898959M840.0351299183598 1009.464141898959A15.26 15.26 0 1 1 868.2291299183597 1021.148141898959A15.26 15.26 0 0 1 840.0351299183598 1009.464141898959M898.6071299183598 1027.194141898959A5.08 5.08 0 0 1 893.6291299183598 1031.257141898959H882.6061299183598A5.08 5.08 0 0 1 882.6061299183598 1021.097141898959A5.08 5.08 0 0 0 887.6861299183598 1016.0171418989589A5.08 5.08 0 0 0 883.3681299183598 1011.039141898959L885.4001299183598 1006.213141898959L885.8061299183597 1005.044141898959L897.8461299183598 1023.332141898959Q899.0141299183598 1025.162141898959 898.6081299183599 1027.1931418989589M863.4041299183598 953.178141898959A15.24 15.24 0 1 1 891.8111299183598 964.227141898959A15.24 15.24 0 0 1 863.4041299183598 953.177141898959M814.9401299183597 998.694141898959A5.08 5.08 0 0 1 814.3301299183597 992.294141898959A5.08 5.08 0 0 1 817.5311299183597 990.109141898959L858.7301299183597 981.676141898959Q863.4041299183598 980.711141898959 867.7721299183597 982.4891418989589A15.24 15.24 0 0 1 876.0021299183597 1002.4031418989589V1002.453141898959A25.248 25.248 0 0 0 839.2741299183598 994.833141898959Q838.3591299183597 993.360141898959 837.0891299183597 992.141141898959A5.08 5.08 0 1 0 829.9261299183597 999.253141898959A5.1 5.1 0 1 1 822.7131299183598 1006.467141898959ZM819.2581299183597 1096.738141898959A5.08 5.08 0 0 1 816.0081299183597 1098.9231418989589L769.7791299183598 1108.118141898959A5.081 5.081 0 0 1 767.7471299183597 1098.161141898959L809.9111299183597 1089.7791418989589A5.08 5.08 0 0 0 813.1111299183598 1087.6451418989589L831.6551299183598 1059.858141898959A5.08 5.08 0 0 0 831.1971299183598 1053.660141898959C827.2351299183598 1049.2401418989589 826.1171299183598 1043.0941418989592 828.4031299183598 1037.658141898959L832.3151299183597 1028.2601418989589A25.4 25.4 0 0 0 860.4581299183598 1039.944141898959L856.5461299183597 1049.3931418989591A15.24 15.24 0 0 1 846.5381299183598 1058.130141898959A5.08 5.08 0 0 0 843.6421299183597 1060.213141898959ZM904.0941299183597 1119.9541418989588A5.08 5.08 0 0 1 897.3891299183598 1117.2111418989589L880.9801299183598 1077.536141898959A5.08 5.08 0 0 0 878.2371299183598 1074.793141898959L855.2761299183597 1065.293141898959Q860.2541299183598 1062.398141898959 863.5061299183598 1057.6731418989589L886.0101299183598 1067.0201418989589Q887.9401299183597 1067.884141898959 888.7531299183598 1069.764141898959L906.7871299183597 1113.2991418989589A5.08 5.08 0 0 1 904.0441299183598 1119.903141898959 "></path></g><rect width="547" height="201" x="726.5" y="899.5" id="space-saver" fill="transparent" stroke="transparent"></rect></g></svg>